<?xml version="1.0" encoding="UTF-8" standalone="no"?>
<!DOCTYPE svg PUBLIC "-//W3C//DTD SVG 1.1//EN" "http://www.w3.org/Graphics/SVG/1.1/DTD/svg11.dtd">
<svg width="100%" height="100%" viewBox="0 0 290 166" version="1.1" xmlns="http://www.w3.org/2000/svg" xmlns:xlink="http://www.w3.org/1999/xlink" xml:space="preserve" xmlns:serif="http://www.serif.com/" style="fill-rule:evenodd;clip-rule:evenodd;stroke-linejoin:round;stroke-miterlimit:2;">
    <g id="Layer_2">
        <g id="Layer_1-2">
            <g transform="matrix(1,0,0,1,152.81,86.82)">
                <path d="M91.075,65.262L91.18,65.133L132.643,10.58C138.675,1.898 138.675,-9.628 132.673,-18.266L132.643,-18.31C132.61,-18.353 91.137,-72.92 91.137,-72.92L91.09,-72.975C84.11,-81.136 74.12,-86.141 63.404,-86.845L63.24,-86.85L-134.002,-86.85C-144.331,-86.831 -152.816,-78.325 -152.81,-67.998C-152.81,-68 -152.81,60.105 -152.81,60.105C-152.772,70.405 -144.301,78.861 -134.005,78.88L63.315,78.88L63.389,78.876C74.067,78.237 84.05,73.328 91.075,65.262ZM87.251,62.039C81.128,69.037 72.453,73.303 63.172,73.88C63.163,73.88 -133.008,73.88 -133.996,73.88C-141.559,73.866 -147.781,67.655 -147.81,60.093C-147.81,60.093 -147.81,-68.001 -147.81,-68.001C-147.815,-75.587 -141.582,-81.836 -133.996,-81.85C-133.02,-81.85 58.562,-81.85 63.156,-81.85C72.472,-81.217 81.154,-76.867 87.239,-69.785C87.244,-69.778 128.596,-15.372 128.596,-15.372C133.367,-8.468 133.37,0.72 128.605,7.628C128.596,7.642 87.251,62.039 87.251,62.039L87.251,62.039Z" style="fill:white;"/>
            </g>
            <g>
                <g transform="matrix(1,0,0,1,152.81,86.82)">
                    <path d="M-60,-27.75L-80.83,-27.75L-80.83,28.92L-94.83,28.92L-94.83,-27.75L-115.4,-27.75L-115.4,-39.1L-60,-39.1L-60,-27.75Z" style="fill:white;fill-rule:nonzero;"/>
                </g>
                <g transform="matrix(1,0,0,1,152.81,86.82)">
                    <path d="M-19.24,14.9L-43.82,14.9L-48.49,28.9L-63.39,28.9L-38.07,-39.1L-25.07,-39.1L0.39,28.9L-14.51,28.9L-19.24,14.9ZM-40,3.55L-23,3.55L-31.55,-21.91L-40,3.55Z" style="fill:white;fill-rule:nonzero;"/>
                </g>
                <g transform="matrix(1,0,0,1,152.81,86.82)">
                    <path d="M59.6,20.32C56.722,23.566 53.027,25.983 48.9,27.32C43.978,29.038 38.793,29.884 33.58,29.82C28.169,29.951 22.82,28.632 18.09,26C13.618,23.39 10.037,19.489 7.82,14.81C5.292,9.419 4.02,3.524 4.1,-2.43L4.1,-7.05C3.955,-13.11 5.129,-19.129 7.54,-24.69C9.608,-29.405 13.061,-33.382 17.44,-36.09C22.029,-38.781 27.281,-40.136 32.6,-40C40.667,-40 46.973,-38.077 51.52,-34.23C56.067,-30.383 58.76,-24.797 59.6,-17.47L46,-17.47C45.333,-21.363 43.94,-24.207 41.82,-26C39.7,-27.793 36.76,-28.703 33,-28.73C28.233,-28.73 24.607,-26.94 22.12,-23.36C19.633,-19.78 18.373,-14.447 18.34,-7.36L18.34,-3C18.34,4.133 19.693,9.52 22.4,13.16C25.107,16.8 29.077,18.623 34.31,18.63C39.57,18.63 43.323,17.51 45.57,15.27L45.57,3.5L32.83,3.5L32.83,-6.82L59.6,-6.82L59.6,20.32Z" style="fill:white;fill-rule:nonzero;"/>
                </g>
            </g>
        </g>
    </g>
</svg>
